<svg xmlns="http://www.w3.org/2000/svg" width="14.59" height="26.13" viewBox="0 0 14.59 26.13"><title>fb</title><g id="圖層_2" data-name="圖層 2"><g id="圖層_1-2" data-name="圖層 1"><path d="M13.57.51H10.32c-3.67,0-6,2.43-6,6.18V9.54H1a.51.51,0,0,0-.51.51v4.13a.51.51,0,0,0,.51.51H4.29V25.12a.51.51,0,0,0,.51.51H9.08a.51.51,0,0,0,.51-.51V14.69h3.83a.51.51,0,0,0,.51-.51V10.05a.51.51,0,0,0-.51-.51H9.59V7.12c0-1.16.28-1.75,1.79-1.75h2.19a.52.52,0,0,0,.52-.52V1A.51.51,0,0,0,13.57.51Z" style="fill:#fff;stroke:#000;stroke-miterlimit:10"/></g></g></svg>