<svg xmlns="http://www.w3.org/2000/svg" width="29" height="29" viewBox="0 0 29 29"><title>question-mark</title><g id="圖層_2" data-name="圖層 2"><g id="圖層_1-2" data-name="圖層 1"><circle cx="14.5" cy="14.5" r="14.5"/><path d="M10.87,17.43A9.62,9.62,0,0,1,11,16.21a4.4,4.4,0,0,1,.32-1.11,3.46,3.46,0,0,1,.68-1,4.32,4.32,0,0,1,1.16-.86l1-.51A10.2,10.2,0,0,0,15.22,12a4.92,4.92,0,0,0,1-1,1.91,1.91,0,0,0,.42-1.21A1.68,1.68,0,0,0,16,8.41a2.42,2.42,0,0,0-1.52-.51,2.24,2.24,0,0,0-1,.21,4,4,0,0,0-.77.49,3.28,3.28,0,0,0-.59.65l-.45.64L8.8,7.9a5.5,5.5,0,0,1,2.28-2.62,6.65,6.65,0,0,1,3.52-.94,7.61,7.61,0,0,1,2.1.3,5.34,5.34,0,0,1,1.88,1,5,5,0,0,1,1.35,1.71,5.64,5.64,0,0,1,.53,2.54,5,5,0,0,1-.65,2.64,5.91,5.91,0,0,1-1.92,1.86,11,11,0,0,1-1.18.69c-.39.21-.76.42-1.09.64a3,3,0,0,0-.8.75,1.62,1.62,0,0,0-.3,1ZM11,24.2V20.05h3.62V24.2Z" style="fill:#fff"/></g></g></svg>