<svg xmlns="http://www.w3.org/2000/svg" width="34.43" height="26.26" viewBox="0 0 34.43 26.26"><title>twitter</title><g id="圖層_2" data-name="圖層 2"><g id="圖層_1-2" data-name="圖層 1"><path d="M33.05,3.61a13.25,13.25,0,0,1-3.65,1A6.34,6.34,0,0,0,32.19,1.1a12.8,12.8,0,0,1-4,1.54A6.34,6.34,0,0,0,17.2,7a6.2,6.2,0,0,0,.15,1.45A18,18,0,0,1,4.28,1.79a6.33,6.33,0,0,0,2,8.47,6.25,6.25,0,0,1-2.87-.78v.07a6.37,6.37,0,0,0,5.08,6.23A6.34,6.34,0,0,1,6.78,16a5.26,5.26,0,0,1-1.2-.11A6.4,6.4,0,0,0,11.5,20.3,12.69,12.69,0,0,1,3.64,23a12.4,12.4,0,0,1-1.51-.08,17.81,17.81,0,0,0,9.72,2.84c11.67,0,18-9.66,18-18,0-.28,0-.55,0-.82A12.72,12.72,0,0,0,33.05,3.61Z" style="fill:#fff;stroke:#000;stroke-miterlimit:10"/></g></g></svg>